<svg version="1.1" xmlns="http://www.w3.org/2000/svg" xmlns:xlink="http://www.w3.org/1999/xlink" viewBox="0 0 29 29"><path fill="#55ACEE" d="M21.967 11.8c.018 5.93-4.607 11.18-11.177 11.18-2.172 0-4.25-.62-6.047-1.76l-.268.422-.038.5.186.013.168.012c.3.02.44.032.6.046 2.06-.026 3.95-.686 5.49-1.86l1.12-.85-1.4-.048c-1.57-.055-2.92-1.08-3.36-2.51l-.48.146-.05.5c.22.03.48.05.75.08.48-.02.87-.07 1.25-.15l2.33-.49-2.32-.49c-1.68-.35-2.91-1.83-2.91-3.55 0-.05 0-.01-.01.03l-.49-.1-.25.44c.63.36 1.35.57 2.07.58l1.7.04L7.4 13c-.978-.662-1.59-1.79-1.618-3.047.028-.61.208-1.242.524-1.8l-.825.07c2.16 2.67 5.35 4.326 8.81 4.515l.59.033-.06-.59v-.02c-.05-.43-.06-.63-.06-.87 0-1.99 1.62-3.61 3.62-3.61 1.02 0 1.96.42 2.65 1.16l.2.21.28-.06c1.01-.22 1.94-.59 2.73-1.09l-.75-.56c-.1.36-.04.89.12 1.36.23.68.58 1.13 1.17.85l-.21-.45-.42-.27c-.52.8-1.17 1.48-1.92 2L22 11l.016.28c.013.2.014.35 0 .52v.04zm.998.038c.018-.22.017-.417 0-.66l-.498.034.284.41c.86-.592 1.61-1.364 2.2-2.267l.97-1.48-1.6.755c.17-.08.3-.02.34.03-.04-.048-.09-.155-.13-.292-.1-.297-.13-.64-.1-.766l.36-1.254-1.1.695c-.69.438-1.51.764-2.41.963l.48.15c-.87-.944-2.08-1.484-3.38-1.484-2.54 0-4.61 2.067-4.61 4.613 0 .29.02.51.08.984l.01.02.5-.06.03-.5c-3.17-.18-6.1-1.7-8.08-4.15l-.48-.56-.36.64c-.39.69-.62 1.48-.65 2.28.04 1.61.81 3.04 2.06 3.88l.3-.92c-.55-.02-1.11-.17-1.6-.45l-.59-.34-.14.67c-.02.08-.02.16 0 .24-.01 2.12 1.55 4.01 3.69 4.46l.1-.49-.1-.49c-.33.07-.67.12-1.03.14-.18-.02-.43-.05-.64-.07l-.76-.09.23.73c.57 1.84 2.29 3.14 4.28 3.21l-.28-.89c-1.38 1.04-3.06 1.63-4.85 1.66-.12-.01-.26-.02-.56-.05l-.17-.01-.18-.01L2.53 21l1.694 1.07c1.954 1.243 4.22 1.916 6.58 1.917 7.156 0 12.2-5.73 12.18-12.18l-.002.04z"></path></svg>
