<svg xmlns="http://www.w3.org/2000/svg" viewBox="0 0 50 50">
    <path style="fill:#fff" d="M 9 7 C 4.0414839 7 0 11.041484 0 16 L 0 34 C 0 38.958516 4.0414839 43 9 43 L 41 43 C 45.958516 43 50 38.958516 50 34 L 50 16 C 50 11.041484 45.958516 7 41 7 L 9 7 z M 9 9 L 41 9 C 44.877484 9 48 12.122516 48 16 L 48 34 C 48 37.877484 44.877484 41 41 41 L 9 41 C 5.1225161 41 2 37.877484 2 34 L 2 16 C 2 12.122516 5.1225161 9 9 9 z M 20.375 15.5 A 1.0001 1.0001 0 0 0 19.78125 15.78125 L 11.28125 24.28125 A 1.0001 1.0001 0 0 0 11.28125 25.71875 L 19.78125 34.21875 A 1.016466 1.016466 0 1 0 21.21875 32.78125 L 14.4375 26 L 40 26 A 1.0001 1.0001 0 1 0 40 24 L 14.4375 24 L 21.21875 17.21875 A 1.0001 1.0001 0 0 0 20.375 15.5 z"></path>
</svg>
