<svg xmlns="http://www.w3.org/2000/svg" xmlns:xlink="http://www.w3.org/1999/xlink" version="1.1" x="0px" y="0px" viewBox="0 0 100 125" enable-background="new 0 0 100 100" xml:space="preserve"><g><path fill="#fff" d="M23.2,44.5h0.9c0.2,0,0.4,0,0.6-0.1c1.1,2.8,3.8,8.2,8.2,11.2c-0.1,0.2-0.1,0.5-0.1,0.7v0   c0,1.8,1.5,3.3,3.3,3.3c1.8,0,3.3-1.5,3.3-3.3v0c0-1.8-1.5-3.3-3.3-3.3c-0.6,0-1.2,0.2-1.7,0.5c-4.4-2.9-6.9-8.7-7.6-10.8   c0.1-0.4,0.2-0.7,0.2-1.1V32c0-1.2-0.7-2.3-1.8-2.7c1.6-12.2,12-21.7,24.6-21.7c12.5,0,22.9,9.4,24.6,21.7   c-1.1,0.4-1.8,1.5-1.8,2.8v9.5c0,1.6,1.3,3,3,3h0.9c1.6,0,3-1.3,3-3V32c0-1.4-1-2.7-2.4-2.9C75.3,15.5,63.8,5,49.9,5   C36,5,24.4,15.5,22.7,29.1c-1.4,0.2-2.5,1.5-2.5,2.9v9.5C20.2,43.1,21.6,44.5,23.2,44.5z"/><ellipse fill="#fff" cx="49.8" cy="32.4" rx="20.5" ry="21.5"/><path fill="#fff" d="M90.9,80.7c-2.4-19.3-27.4-25.5-30.4-26.2L50,62.8l5,18.2l-5,7.9l-4.8-7.7L50,62.8l-7.8-6.1   c-0.2,3.1-2.8,5.6-5.9,5.6c-2.9,0-5.2-2-5.8-4.7C22,61.1,10.7,68.1,9.1,80.7c-0.2,1.9,0.6,3.8,2.2,4.9C15.9,88.9,27.5,95,50,95   l0-0.1l0,0.1c22.5,0,34.1-6.1,38.7-9.3C90.3,84.6,91.1,82.7,90.9,80.7z M74.7,78H62.7v-3.2h11.9V78z"/></g></svg>
