<svg xmlns="http://www.w3.org/2000/svg" xmlns:xlink="http://www.w3.org/1999/xlink" version="1.1" x="0px" y="0px" viewBox="0 0 100 125" enable-background="new 0 0 100 100" xml:space="preserve"><path fill="#fff" d="M39.334,81.352l34.858,5.009c2.643,0.38,5.093-1.455,5.473-4.097c0.38-2.643-1.455-5.093-4.097-5.473L56.97,74.118v-0.279  h8.984c3.164,0,5.729-2.565,5.729-5.729s-2.565-5.729-5.729-5.729h1.343c3.164,0,5.729-2.565,5.729-5.729s-2.565-5.729-5.729-5.729  h-2.238c3.164,0,5.729-2.565,5.729-5.729s-2.565-5.729-5.729-5.729H45.355l14.259-16.382c2.077-2.387,1.827-6.006-0.56-8.083h0  c-2.387-2.077-6.006-1.827-8.083,0.56L25.343,45.002c-4.174,3.828-6.807,9.309-6.807,15.418  C18.536,71.937,27.835,81.275,39.334,81.352z"/></svg>
