<svg xmlns="http://www.w3.org/2000/svg" xmlns:xlink="http://www.w3.org/1999/xlink" version="1.1" x="0px" y="0px" viewBox="0 0 100 125" enable-background="new 0 0 100 100" xml:space="preserve"><g><defs><rect id="b" x="3.5" y="3.327" width="94.173" height="94.173"/></defs><clipPath id="a"><use xlink:href="#b" overflow="visible"/></clipPath><path clip-path="url(#a)" fill="#000000" d="M97.673,50.413c0-1.104-0.896-2-2-2H52.587V5.327c0-1.104-0.896-2-2-2   c-1.105,0-2,0.896-2,2v43.086H5.5c-1.104,0-2,0.896-2,2c0,1.105,0.896,2,2,2h43.086v43.086c0,1.104,0.897,2,2.001,2   c1.104,0,2-0.896,2-2V52.413h43.086C96.777,52.413,97.673,51.518,97.673,50.413"/></g></svg>
