<svg xmlns="http://www.w3.org/2000/svg" xmlns:xlink="http://www.w3.org/1999/xlink" version="1.1" x="0px" y="0px" viewBox="0 0 100 125" enable-background="new 0 0 100 100" xml:space="preserve"><g><path fill="#6b7b83" d="M49.249,38.807c0,0-1.308-5.631-6.585-2.476L31.881,64.662c0,0-2.659,9.553,7.429,12.787   c0,0,7.991,2.742,12.479-5.859l16.419-43.039c0,0,7.604-19.778-9.069-25.207c0,0-16.106-7.476-23.844,12.833L17.376,63.232   c0,0-10.821,24.012,13.725,33.096c0,0,21.89,10.428,31.49-14.154l17.195-44.531c0,0-1.409-5.671-6.63-2.351L57.736,75.77   c0,0-3.784,17.098-22.285,12.887c0,0-17.407-6.037-11.764-21.541l18.188-48.461c0,0,4.448-10.686,13.993-7.092   c0,0,9.667,2.859,6.343,12.287c0,0-15.903,44.189-16.949,45.179c-1.043,1-2.328,2.055-4.284,1.273   c-1.957-0.771-2.091-3.031-2.127-4.195C38.81,64.936,49.249,38.807,49.249,38.807z"/></g></svg>
