<svg xmlns="http://www.w3.org/2000/svg" xmlns:xlink="http://www.w3.org/1999/xlink" version="1.1" x="0px" y="0px" viewBox="0 0 100 125" enable-background="new 0 0 100 100" xml:space="preserve"><g><path fill="#6b7b83" d="M50,0C22.386,0,0,22.386,0,50s22.386,50,50,50s50-22.386,50-50S77.614,0,50,0z M30,20c5.522,0,10,4.477,10,10   c0,5.522-4.478,10-10,10s-10-4.478-10-10C20,24.477,24.478,20,30,20z M50,80c-13.062,0-24.172-8.349-28.291-20H78.29   C74.172,71.651,63.062,80,50,80z M70,40c-5.522,0-10-4.478-10-10c0-5.523,4.478-10,10-10s10,4.477,10,10C80,35.522,75.522,40,70,40   z"/></g></svg>
