<svg xmlns="http://www.w3.org/2000/svg" xmlns:xlink="http://www.w3.org/1999/xlink" version="1.1" id="Capa_1" x="0px" y="0px" width="512px" height="512px" viewBox="0 0 542.662 542.662" style="enable-background:new 0 0 542.662 542.662;" xml:space="preserve">
	<path d="M363.168,74.051c-18.537,0-36.429,2.368-53.263,6.759c-28.03-11.01-59.299-17.199-92.283-17.199   C97.627,63.61,0,145.123,0,245.312c0,53.143,27.281,102.827,75.141,137.387v96.354l99.845-55.573   c14.104,2.345,28.421,3.54,42.63,3.54c59.479,0,113.439-20.042,152.763-52.445c8.983-0.304,17.994-1.161,26.909-2.607l84.34,46.938   v-81.527c38.906-28.556,61.034-69.348,61.034-112.994C542.674,141.492,462.142,74.051,363.168,74.051z M217.622,397.736   c-14.181,0-28.484-1.338-42.508-3.968l-5.2-0.973l-65.497,36.452v-62.022l-6.504-4.346c-43.617-29.15-68.636-72.008-68.636-117.568   c0-84.046,84.492-152.425,188.346-152.425c16.76,0,32.996,1.804,48.472,5.143c-49.541,26.786-82.437,73.399-82.437,126.354   c0,71.607,60.104,131.64,140.269,146.672C293.648,387.867,257.033,397.736,217.622,397.736z M458.865,317.593l-6.502,4.346v47.174   L402.377,341.3l-0.12,0.022l-5.072,0.949c-11.23,2.104-22.666,3.168-34.021,3.168c-1.225,0-2.425-0.052-3.637-0.074   c-81.162-1.572-146.593-55.214-146.593-120.982c0-51.133,39.568-94.93,95.313-112.642c14.197-4.509,29.437-7.33,45.355-8.145   c3.167-0.163,6.347-0.269,9.565-0.269c82.837,0,150.229,54.307,150.229,121.056C513.397,260.458,493.517,294.435,458.865,317.593z" fill="#000"/>
</svg>
