<!-- <svg xmlns="http://www.w3.org/2000/svg" xmlns:xlink="http://www.w3.org/1999/xlink" version="1.1" x="0px" y="0px" viewBox="206 206 100 125" style="enable-background:new 206 206 100 100;" xml:space="preserve"><path fill="#fff" d="M217.461,249.539c0,21.284,17.255,38.539,38.539,38.539c8.667,0,16.665-2.861,23.103-7.69L294.539,301v-51.461  C294.539,228.255,277.284,211,256,211S217.461,228.255,217.461,249.539z M236.73,249.539c0-10.642,8.627-19.27,19.27-19.27  s19.27,8.627,19.27,19.27c0,10.643-8.627,19.27-19.27,19.27S236.73,260.182,236.73,249.539z"/></svg> -->
<svg xmlns="http://www.w3.org/2000/svg" xmlns:xlink="http://www.w3.org/1999/xlink" version="1.1" x="0px" y="0px" viewBox="0 0 100 125" enable-background="new 0 0 100 100" xml:space="preserve"><g><path fill="#fff" d="M50.008,95L28.736,66.072l-3.625-5.016c-5.384-5.952-8.664-13.844-8.664-22.503C16.446,20.023,31.469,5,50,5   s33.554,15.023,33.554,33.554c0,8.439-3.116,16.151-8.259,22.047L50.008,95z M30.204,38.554c0,10.933,8.863,19.796,19.796,19.796   s19.796-8.863,19.796-19.796S60.933,18.758,50,18.758S30.204,27.621,30.204,38.554z M41.067,38.554   c0,4.934,3.999,8.933,8.933,8.933s8.933-3.999,8.933-8.933S54.934,29.621,50,29.621S41.067,33.62,41.067,38.554z"/></g></svg>
