<svg xmlns="http://www.w3.org/2000/svg" xmlns:xlink="http://www.w3.org/1999/xlink" version="1.1" x="0px" y="0px" viewBox="0 0 100 125" enable-background="new 0 0 100 100" xml:space="preserve"><path fill="#3e4757" d="M83.639,61.467c-0.006-0.016-0.008-0.032-0.014-0.048l-7.676-19.263c-1.498-3.788-5.605-5.729-9.161-4.328  c-1.419,0.561-2.533,1.492-3.287,2.637c-1.754-3.066-5.3-4.463-8.522-3.189c-1.447,0.574-2.569,1.587-3.302,2.835  c-1.869-2.546-5.092-3.621-8.053-2.456c-1.35,0.535-2.417,1.42-3.15,2.516l-7.588-19.213c-1.488-3.768-5.453-5.615-9.028-4.208  c-1.674,0.659-2.985,1.917-3.691,3.542c-0.769,1.769-0.777,3.792-0.023,5.699l12.106,30.66c-2.762-2.055-5.21-3.346-5.364-3.426  c-3.581-1.912-6.878-1.341-9.288,1.616c-2.456,3.027-1.899,7.273,1.294,9.877l0.218,0.176l0.262,0.086  c0.074,0.024,7.403,2.527,12.042,10.651c0.7,1.224,1.312,2.315,1.869,3.31c1.585,2.829,2.73,4.873,4.196,6.905l2.15,2.323  c0.01,0.013,0.016,0.026,0.026,0.038c2.024,2.367,6.826,6.617,15.188,6.616c3.421,0,7.438-0.711,12.103-2.553l3.457-1.361  c5.887-2.326,10.492-6.246,12.968-11.036C86.164,74.471,86.256,68.107,83.639,61.467z M80.706,78.495  c-2.143,4.146-6.193,7.564-11.404,9.624l-3.456,1.36c-9.74,3.847-18.218,2.848-23.414-2.693c-0.004-0.004-0.005-0.01-0.009-0.014  l-2.565-2.757c-1.341-1.87-2.441-3.835-3.958-6.541c-0.561-1.001-1.177-2.102-1.881-3.333c-4.741-8.302-11.858-11.327-13.417-11.908  c-1.738-1.55-2.03-3.83-0.676-5.501c1.482-1.818,3.245-2.093,5.558-0.855c0.058,0.03,5.703,3.017,9.22,6.988l1.252,3.172  c0.233,0.59,0.798,0.949,1.396,0.949c0.183,0,0.37-0.033,0.55-0.104c0.771-0.305,1.148-1.176,0.844-1.946L22.933,24.888  c-0.452-1.144-0.458-2.383-0.015-3.401c0.392-0.902,1.097-1.575,2.039-1.945c2.044-0.804,4.255,0.277,5.14,2.518l9.793,24.797  c0.006,0.015,0.01,0.031,0.016,0.046l2.188,5.536l2.503,6.339c0.304,0.771,1.174,1.148,1.946,0.845  c0.771-0.305,1.148-1.176,0.844-1.946l-1.312-3.323c-0.002-0.006-0.003-0.012-0.005-0.018l-1.776-4.492l-1.605-4.063  c-0.875-2.234-0.001-4.526,2.039-5.334c2.04-0.805,4.245,0.283,5.134,2.523l1.386,3.512c0.005,0.013,0.009,0.026,0.014,0.04  l0.997,2.522l2.292,5.807c0.305,0.771,1.179,1.147,1.946,0.845c0.771-0.305,1.148-1.176,0.845-1.946l-1.315-3.334  c-0.002-0.003-0.002-0.006-0.003-0.009l-0.456-1.154l-1.525-3.864c-0.861-2.233,0.011-4.517,2.041-5.321  c2.036-0.803,4.239,0.28,5.126,2.519l1.663,4.214c0.019,0.051,0.031,0.103,0.052,0.154l1.892,4.781  c0.304,0.77,1.179,1.149,1.946,0.843c0.771-0.305,1.147-1.176,0.843-1.946l-1.614-4.081c-0.008-0.023-0.011-0.046-0.02-0.069  l-0.28-0.711c-0.806-2.165,0.106-4.32,2.201-5.149c2.016-0.795,4.379,0.39,5.271,2.645l7.668,19.245  c0.003,0.009,0.004,0.019,0.008,0.028C83.139,68.358,83.094,73.877,80.706,78.495z"/><path fill="#3e4757" d="M33.646,11.009c-0.014,0.048-0.029,0.094-0.039,0.143s-0.013,0.096-0.017,0.145c-0.004,0.048-0.01,0.095-0.01,0.143  c0,0.048,0.006,0.096,0.011,0.144c0.005,0.047,0.008,0.095,0.018,0.142c0.01,0.047,0.024,0.092,0.038,0.138  c0.014,0.046,0.027,0.092,0.045,0.137s0.042,0.087,0.064,0.129c0.022,0.043,0.044,0.086,0.07,0.126  c0.027,0.042,0.06,0.079,0.091,0.118c0.03,0.038,0.059,0.075,0.093,0.11c0.037,0.037,0.078,0.069,0.118,0.103  c0.029,0.023,0.053,0.051,0.084,0.073l4.714,3.332c0.263,0.186,0.565,0.275,0.864,0.275c0.471,0,0.934-0.221,1.227-0.634  c0.478-0.676,0.317-1.612-0.359-2.091l-1.972-1.394c21.166-3.73,31.54,9.504,31.98,10.083c0.295,0.389,0.743,0.594,1.196,0.594  c0.314,0,0.632-0.099,0.902-0.303c0.661-0.499,0.793-1.439,0.294-2.101C72.578,19.782,61.243,5.18,38.289,9.171l1.15-1.815  c0.443-0.7,0.236-1.626-0.464-2.07c-0.701-0.444-1.627-0.235-2.07,0.464l-3.094,4.882c-0.021,0.033-0.033,0.069-0.051,0.103  c-0.024,0.045-0.049,0.089-0.068,0.136C33.673,10.916,33.66,10.962,33.646,11.009z"/></svg>
