<svg xmlns="http://www.w3.org/2000/svg" xmlns:xlink="http://www.w3.org/1999/xlink" version="1.1" x="0px" y="0px" viewBox="0 0 100 125" enable-background="new 0 0 100 100" xml:space="preserve" preserveAspectRatio="none"><path fill="#28282A" d="M3.221,52.628c0,8.21,6.655,14.865,14.866,14.865c0.963,0,1.9-0.094,2.81-0.267c-0.118,0.681-0.185,1.378-0.185,2.096  c0,6.76,5.48,12.24,12.243,12.24c3.132,0,5.988-1.178,8.153-3.111c3.192,3.928,8.057,6.441,13.513,6.441  c6.784,0,12.658-3.885,15.529-9.547c1.531,0.439,3.152,0.683,4.826,0.683c9.611,0,17.404-7.79,17.404-17.399  c0-1.428-0.177-2.819-0.505-4.149c2.859-2.241,4.699-5.724,4.699-9.639c0-6.759-5.479-12.242-12.239-12.242  c-0.023,0-0.047,0.001-0.073,0.001c0,0,0,0,0-0.001c0-6.761-5.479-12.239-12.239-12.239c-3.709,0-7.031,1.652-9.273,4.258  c-2.153-5.563-7.548-9.511-13.871-9.511c-5.936,0-11.056,3.477-13.438,8.501c-2.147-3.521-6.028-5.875-10.459-5.875  c-6.76,0-12.239,5.48-12.239,12.24c0,3.05,1.117,5.836,2.961,7.979C8.625,39.092,3.221,45.228,3.221,52.628z"/></svg>
