<svg xmlns="http://www.w3.org/2000/svg" xmlns:xlink="http://www.w3.org/1999/xlink" version="1.1" x="0px" y="0px" viewBox="0 0 100 125" enable-background="new 0 0 100 100" xml:space="preserve" preserveAspectRatio="none"><path fill="#28282A" d="M81.882,42.265c-1.318-7.397-9.616-13.103-19.684-13.103c-5.854,0-11.102,1.94-14.741,5.008  c-3.547-3.781-9.271-6.248-15.75-6.248c-10.771,0-19.504,6.792-19.504,15.17c0,1.236,0.211,2.432,0.57,3.582  c-4.616,2.497-7.613,6.448-7.613,10.911c0,7.556,8.551,13.681,19.098,13.681c4.939,0,9.426-1.354,12.816-3.56  c3.725,3.328,9.218,5.442,15.36,5.442c4.742,0,9.094-1.265,12.551-3.368c2.803,0.985,5.944,1.554,9.279,1.554  c11.637,0,21.07-6.737,21.07-15.05C95.336,49.894,89.749,44.447,81.882,42.265z"/></svg>
