<svg xmlns="http://www.w3.org/2000/svg" xmlns:xlink="http://www.w3.org/1999/xlink" version="1.1" x="0px" y="0px" viewBox="0 0 256 320" enable-background="new 0 0 256 256" xml:space="preserve"><g><path fill="#28282A" d="M171.4,63.7c1.2,1.2,1.3,3,0.2,4l-58,58c-1.1,1.1-2.9,1-4-0.2c-1.2-1.2-1.3-3-0.2-4l58-58   C168.4,62.4,170.2,62.5,171.4,63.7z"/><path fill="#28282A" d="M171.4,100.9c1.2,1.2,1.3,3,0.2,4l-58,58c-1.1,1.1-2.9,1-4-0.2c-1.2-1.2-1.3-3-0.2-4l58-58   C168.4,99.6,170.2,99.7,171.4,100.9z"/><path fill="#28282A" d="M198.5,86.1l-31.2-31.4c-3.7-3.7-9.5-3.7-13.2,0l-22,22.4c-0.2,0.2-0.2,0.2-0.2,0.5l-60.5,60.7   c-0.2,0.2-0.5,0.7-0.7,1.2l-19,58.1c-0.2,1,0,2.2,0.7,3c1.1,1.1,1.8,1.3,2.5,1.3c0.2,0,0.5,0,0.7-0.2l59.6-18   c0.5-0.2,1-0.5,1.2-0.7l60.2-61.2c0.2-0.2,0.2-0.2,0.2-0.5l21.7-22C202.2,95.6,202.2,89.8,198.5,86.1z M59.6,194.5l16.2-50.3   l12,2.7v16.2c0,1.7,1.2,3,3,3h15.7l3.7,13.2L59.6,194.5z M195,95.2l-79.4,80.8l-5.1-15.4l-16.6-0.6l0.1-16.6L79.9,139L159,59   c1.2-1.2,3.5-1.2,4.7,0L195,90.5C196.2,91.7,196.2,94,195,95.2z"/></g></svg>
