<svg xmlns="http://www.w3.org/2000/svg" xmlns:xlink="http://www.w3.org/1999/xlink" version="1.1" x="0px" y="0px" viewBox="0 0 100 125" enable-background="new 0 0 100 100" xml:space="preserve"><path fill="#28282A" d="M90.945,46.375v7.27c0,2.322-1.662,4.285-3.951,4.669l-6.023,1.01c-0.623,2.071-1.456,4.077-2.486,5.988l3.543,4.989  c1.342,1.889,1.126,4.45-0.512,6.088l-5.141,5.141c-1.641,1.641-4.205,1.855-6.095,0.507l-4.976-3.547  c-1.912,1.029-3.918,1.861-5.989,2.484l-1.022,6.029c-0.387,2.285-2.35,3.943-4.667,3.943h-7.27c-2.322,0-4.285-1.662-4.669-3.951  l-1.01-6.023c-2.006-0.604-3.952-1.404-5.808-2.389l-5.038,3.577c-1.889,1.341-4.45,1.126-6.088-0.512l-5.141-5.141  c-1.642-1.641-1.855-4.205-0.507-6.095l3.513-4.928c-1.039-1.903-1.883-3.903-2.519-5.973l-6.09-1.032  c-2.285-0.387-3.943-2.35-3.943-4.667v-7.27c0-2.322,1.662-4.285,3.951-4.669l5.967-1c0.61-2.077,1.429-4.088,2.445-6.003  l-3.577-5.038c-1.342-1.89-1.126-4.45,0.512-6.088l5.141-5.141c1.641-1.641,4.205-1.855,6.095-0.507l4.928,3.513  c1.903-1.04,3.904-1.884,5.973-2.519l1.032-6.09c0.387-2.285,2.35-3.943,4.667-3.943h7.27c2.322,0,4.285,1.662,4.669,3.951  c0.001,0.009,0.003,0.017,0.004,0.026l2.72,17.686C67.833,34.644,72.134,41.934,72.134,50c0,12.205-9.929,22.134-22.134,22.134  S27.866,62.205,27.866,50c0-12.205,9.929-22.134,22.134-22.134c1.079,0,1.955,0.875,1.955,1.955c0,1.079-0.875,1.954-1.955,1.954  c-10.049,0-18.225,8.176-18.225,18.225S39.951,68.225,50,68.225S68.225,60.049,68.225,50c0-6.927-3.846-13.168-10.037-16.287  c-0.033-0.017-0.06-0.04-0.092-0.059c-0.074-0.042-0.147-0.085-0.214-0.136c-0.045-0.034-0.083-0.073-0.124-0.11  c-0.052-0.048-0.106-0.094-0.153-0.147c-0.039-0.044-0.071-0.092-0.106-0.139c-0.04-0.055-0.081-0.108-0.116-0.167  c-0.031-0.053-0.054-0.108-0.08-0.164c-0.028-0.059-0.057-0.116-0.079-0.179c-0.024-0.069-0.039-0.141-0.055-0.212  c-0.01-0.045-0.027-0.087-0.035-0.134l-2.864-18.622c-0.07-0.394-0.411-0.679-0.812-0.679h-7.27c-0.404,0-0.746,0.289-0.813,0.687  l-1.238,7.304c-0.128,0.756-0.686,1.367-1.427,1.563c-2.565,0.678-5.022,1.716-7.304,3.083c-0.666,0.4-1.506,0.366-2.139-0.085  l-5.947-4.239c-0.33-0.235-0.776-0.198-1.062,0.088l-5.141,5.141c-0.286,0.286-0.323,0.732-0.089,1.061l4.29,6.042  c0.444,0.625,0.481,1.452,0.096,2.115c-1.338,2.298-2.343,4.769-2.988,7.344c-0.189,0.754-0.806,1.324-1.573,1.453l-7.2,1.207  c-0.399,0.067-0.688,0.409-0.688,0.814v7.27c0,0.404,0.289,0.746,0.687,0.813l7.304,1.238c0.756,0.128,1.367,0.686,1.563,1.427  c0.679,2.565,1.716,5.023,3.084,7.304c0.4,0.667,0.366,1.507-0.085,2.139l-4.24,5.947c-0.235,0.329-0.198,0.776,0.088,1.062  l5.141,5.141c0.285,0.286,0.732,0.323,1.061,0.089l6.042-4.29c0.625-0.444,1.452-0.481,2.115-0.096  c2.247,1.308,4.657,2.298,7.163,2.944c0.748,0.193,1.312,0.808,1.44,1.57l1.215,7.248c0.067,0.399,0.409,0.689,0.814,0.689h7.27  c0.404,0,0.746-0.289,0.813-0.687l1.229-7.251c0.129-0.76,0.693-1.374,1.44-1.566c2.565-0.66,5.03-1.682,7.325-3.038  c0.665-0.393,1.499-0.357,2.128,0.091l5.988,4.269c0.329,0.235,0.776,0.198,1.062-0.088l5.141-5.141  c0.286-0.286,0.323-0.732,0.089-1.061l-4.261-6.001c-0.447-0.629-0.482-1.462-0.089-2.126c1.356-2.295,2.379-4.759,3.039-7.324  c0.193-0.748,0.808-1.312,1.57-1.44l7.248-1.215c0.399-0.067,0.689-0.409,0.689-0.814v-7.27c0-0.404-0.289-0.746-0.687-0.813  l-7.251-1.229c-0.76-0.129-1.374-0.693-1.566-1.44c-0.66-2.565-1.682-5.029-3.038-7.325c-0.393-0.665-0.357-1.499,0.091-2.128  l4.269-5.988c0.235-0.329,0.198-0.776-0.088-1.062l-5.141-5.141c-0.286-0.286-0.732-0.323-1.061-0.089l-6,4.261  c-0.88,0.625-2.1,0.418-2.725-0.462c-0.625-0.88-0.418-2.1,0.462-2.725l6.001-4.261c1.889-1.341,4.45-1.126,6.088,0.512l5.141,5.141  c1.642,1.641,1.855,4.205,0.507,6.095l-3.548,4.976c1.029,1.912,1.861,3.918,2.484,5.989l6.028,1.022  C89.287,42.095,90.945,44.058,90.945,46.375z"/></svg>
