<svg xmlns="http://www.w3.org/2000/svg" xmlns:xlink="http://www.w3.org/1999/xlink" version="1.1" x="0px" y="0px" viewBox="0 0 100 125" enable-background="new 0 0 100 100" xml:space="preserve"><g><g><path fill="#ff6562" fill-rule="evenodd" clip-rule="evenodd" d="M59.759,29.039c-5.838,0-10.573,4.734-10.573,10.573    c0,5.838,4.735,10.572,10.573,10.572c5.84,0,10.572-4.734,10.572-10.572C70.331,33.773,65.599,29.039,59.759,29.039z     M59.759,45.956c-3.505,0-6.344-2.841-6.344-6.344c0-3.504,2.839-6.344,6.344-6.344s6.344,2.84,6.344,6.344    C66.103,43.115,63.264,45.955,59.759,45.956z M59.759,16.352c-14.015,0-25.375,11.362-25.375,25.375    c0,14.014,25.375,42.291,25.375,42.291S85.133,55.74,85.133,41.727C85.133,27.713,73.771,16.352,59.759,16.352z M38.613,41.99    c0-11.824,9.467-21.409,21.146-21.409c11.677,0,21.145,9.586,21.145,21.41c0,11.824-21.145,35.683-21.145,35.683    S38.613,53.814,38.613,41.99z M28.009,59.773c0,0-10.026-11.313-10.026-16.919c0-5.607,4.489-10.151,10.026-10.151    c1.724,0,3.321,0.48,4.737,1.257c0.173-0.679,0.362-1.351,0.585-2.009c-1.607-0.795-3.409-1.254-5.323-1.254    c-6.646,0-12.032,5.387-12.032,12.032S28.009,62.78,28.009,62.78s4.055-4.527,7.458-9.622c-0.325-0.672-0.635-1.337-0.923-1.996    C31.648,55.657,28.009,59.773,28.009,59.773z M28.009,36.713c-2.769,0-5.013,2.245-5.013,5.013c0,2.768,2.245,5.012,5.013,5.012    c1.798,0,3.362-0.955,4.247-2.375c-0.258-1.227-0.41-2.397-0.41-3.483c0-0.747,0.055-1.478,0.112-2.209    C31.041,37.488,29.622,36.713,28.009,36.713z M28.009,44.735c-1.662,0-3.008-1.348-3.008-3.008c0-1.662,1.347-3.008,3.008-3.008    c1.661,0,3.008,1.347,3.008,3.008C31.017,43.387,29.67,44.733,28.009,44.735z"/></g></g></svg>
