<svg xmlns="http://www.w3.org/2000/svg" xmlns:xlink="http://www.w3.org/1999/xlink" version="1.1" x="0px" y="0px" viewBox="0 0 100 125" enable-background="new 0 0 100 100" xml:space="preserve"><path fill="#00dad8" d="M77.75,39.979v-8.023l6.413-5.323l-6.413-5.323v-1.61c0-3.497-2.833-6.332-6.331-6.332H13.177  c-3.49,0-6.325,2.834-6.325,6.332v20.28c0,3.497,2.835,6.328,6.325,6.328h58.242C74.917,46.306,77.75,43.476,77.75,39.979z   M46.221,35.556H15.502c-0.69,0-1.25-0.56-1.25-1.25s0.56-1.25,1.25-1.25h30.719c0.69,0,1.25,0.56,1.25,1.25  S46.911,35.556,46.221,35.556z M68.811,25.791H15.502c-0.69,0-1.25-0.56-1.25-1.25s0.56-1.25,1.25-1.25h53.309  c0.69,0,1.25,0.56,1.25,1.25S69.501,25.791,68.811,25.791z"/><path fill="#00dad8" d="M86.209,53.28H27.97c-3.49,0-6.325,2.831-6.325,6.328v1.615l-6.412,5.32l6.412,5.319v8.027c0,3.494,2.834,6.327,6.325,6.327  h58.239c3.492,0,6.329-2.833,6.329-6.327V59.608C92.538,56.111,89.701,53.28,86.209,53.28z M73.277,75.467H30.581  c-0.69,0-1.25-0.56-1.25-1.25s0.56-1.25,1.25-1.25h42.697c0.69,0,1.25,0.56,1.25,1.25S73.968,75.467,73.277,75.467z M83.888,65.703  H30.581c-0.69,0-1.25-0.56-1.25-1.25s0.56-1.25,1.25-1.25h53.307c0.69,0,1.25,0.56,1.25,1.25S84.578,65.703,83.888,65.703z"/></svg>
