<svg xmlns="http://www.w3.org/2000/svg" xmlns:xlink="http://www.w3.org/1999/xlink" version="1.1" x="0px" y="0px" viewBox="0 0 100 125" enable-background="new 0 0 100 100" xml:space="preserve"><path fill="#A778FF" d="M49,62.33v20.366C49,88.887,44.612,93,38.421,93H28.269H18.055H7V82.696V69.305V62.33C7,56.138,11.863,51,18.055,51h20.366  C44.612,51,49,56.138,49,62.33z M49,37.586V17.22C49,11.029,44.612,7,38.421,7H28.269H18.055H7v10.22v13.391v6.976  C7,43.778,11.863,49,18.055,49h20.366C44.612,49,49,43.778,49,37.586z M52,62.33v20.366C52,88.887,57.086,93,63.277,93h10.152  h10.214H94V82.696V69.305V62.33C94,56.138,89.835,51,83.644,51H63.277C57.086,51,52,56.138,52,62.33z M63.277,49h20.366  C89.835,49,94,43.778,94,37.586v-6.976V17.22V7H83.644H73.429H63.277C57.086,7,52,11.029,52,17.22v20.366  C52,43.778,57.086,49,63.277,49z"/></svg>
