<svg xmlns="http://www.w3.org/2000/svg" xmlns:xlink="http://www.w3.org/1999/xlink" version="1.1" x="0px" y="0px" viewBox="0 0 100 125" enable-background="new 0 0 100 100" xml:space="preserve"><g><path fill="#fff" d="M86.125,5H63.926c-4.896,0-8.881,3.983-8.881,8.879v22.199c0,4.896,3.984,8.88,8.881,8.88h22.199   c4.896,0,8.879-3.983,8.879-8.88V13.879C95.004,8.983,91.021,5,86.125,5z"/><path fill="#fff" d="M36.073,5H13.874c-4.897,0-8.879,3.983-8.879,8.879v22.199c0,4.896,3.982,8.88,8.879,8.88h22.199   c4.897,0,8.879-3.983,8.879-8.88V13.879C44.953,8.983,40.97,5,36.073,5z"/><path fill="#fff" d="M86.125,55.042H63.926c-4.896,0-8.881,3.984-8.881,8.88v22.199c0,4.897,3.984,8.879,8.881,8.879h22.199   c4.896,0,8.879-3.981,8.879-8.879V63.922C95.004,59.026,91.021,55.042,86.125,55.042z"/><path fill="#fff" d="M36.073,55.042H13.874c-4.897,0-8.879,3.984-8.879,8.88v22.199c0,4.897,3.982,8.879,8.879,8.879h22.199   c4.897,0,8.879-3.981,8.879-8.879V63.922C44.953,59.026,40.97,55.042,36.073,55.042z"/></g></svg>
