<svg xmlns="http://www.w3.org/2000/svg" xmlns:xlink="http://www.w3.org/1999/xlink" version="1.1" x="0px" y="0px" viewBox="0 0 100 125" style="enable-background:new 0 0 100 100;" xml:space="preserve"><rect fill="#fff" x="55" y="89" width="3" height="2"/><path fill="#fff" d="M74.8,91H74v-2h0.8c1.6,0,3.1-0.1,4.5-0.3l0.3,2C78.1,90.9,76.5,91,74.8,91z"/><rect fill="#fff" x="67" y="89" width="5" height="2"/><rect fill="#fff" x="60" y="89" width="5" height="2"/><path fill="#fff" d="M81.7,90.3l-0.4-2c1.7-0.4,3.2-0.9,4.7-1.5l0.8,1.8C85.2,89.4,83.5,89.9,81.7,90.3z"/><path fill="#fff" d="M88.7,87.7l-1-1.7c1.4-0.8,2.7-1.8,3.9-2.9l1.4,1.4C91.7,85.7,90.3,86.8,88.7,87.7z"/><path fill="#fff" d="M94.4,82.9l-1.6-1.3c1-1.3,1.9-2.6,2.5-4.1l1.8,0.8C96.5,79.9,95.6,81.5,94.4,82.9z"/><path fill="#fff" d="M97.9,76.2L96,75.7c0.4-1.5,0.7-3.1,0.7-4.7l2-0.1C98.6,72.8,98.4,74.5,97.9,76.2z"/><path fill="#fff" d="M96.5,69c-0.2-1.6-0.6-3.2-1.3-4.6l1.8-0.8c0.7,1.7,1.2,3.4,1.4,5.2L96.5,69z"/><path fill="#fff" d="M94.4,62.6c-0.8-1.4-1.8-2.7-3-3.8l1.4-1.4c1.3,1.3,2.4,2.7,3.3,4.2L94.4,62.6z"/><path fill="#fff" d="M90,57.5c-1.3-1-2.7-1.8-4.2-2.5l0.8-1.8c1.7,0.7,3.2,1.6,4.6,2.7L90,57.5z"/><path fill="#fff" d="M83.9,54.4c-1.5-0.5-3.1-0.9-4.8-1.1l0.3-2c1.8,0.2,3.5,0.6,5.2,1.2L83.9,54.4z"/><path fill="#fff" d="M77.2,53.1C76.5,53,75.7,53,75,53h-3v-2h3c0.8,0,1.6,0,2.3,0.1L77.2,53.1z"/><rect fill="#fff" x="65" y="51" width="5" height="2"/><path fill="#fff" d="M63,53h-4c-0.4,0-0.8,0-1.2,0l0.1-2c0.4,0,0.7,0,1.1,0h4V53z"/><path fill="#fff" d="M55.6,52.8c-1.9-0.3-3.6-0.8-5.2-1.6l0.9-1.8c1.4,0.7,2.9,1.1,4.6,1.4L55.6,52.8z"/><path fill="#fff" d="M48.6,50c-1.6-1.1-2.8-2.5-3.7-4.1l1.8-1c0.7,1.3,1.8,2.5,3.1,3.4L48.6,50z"/><path fill="#fff" d="M44,43.9c-0.3-1.1-0.5-2.2-0.5-3.4c0-0.7,0.1-1.5,0.2-2.2l2,0.4c-0.1,0.6-0.2,1.2-0.2,1.8c0,0.9,0.1,1.9,0.4,2.8L44,43.9z"/><path fill="#fff" d="M46.2,36.9l-1.8-0.8c0.7-1.7,1.8-3.2,3.3-4.5l1.3,1.5C47.7,34.3,46.8,35.5,46.2,36.9z"/><path fill="#fff" d="M50.5,32.1l-1-1.7c1.5-0.9,3.2-1.6,5.1-2l0.4,2C53.3,30.7,51.8,31.3,50.5,32.1z"/><path fill="#fff" d="M56.8,30.1l-0.2-2C57.4,28,58.2,28,59,28h3v2h-3C58.3,30,57.5,30,56.8,30.1z"/><rect fill="#fff" x="64" y="28" width="3" height="2"/><path fill="#fff" d="M52.5,90.3c-0.2,0-0.4-0.1-0.6-0.2l-14.3-9.3c-3.7,2.5-8.2,3.9-12.8,3.9c-12,0-21.7-9-21.7-20.2s9.7-20.2,21.7-20.2  s21.7,9,21.7,20.2c0,3-0.7,5.9-2.1,8.6l9,15.5c0.3,0.4,0.2,1-0.2,1.3C53,90.2,52.8,90.3,52.5,90.3z M37.6,78.4  c0.2,0,0.4,0.1,0.6,0.2l11,7.2l-7-12c-0.2-0.3-0.2-0.7,0-1.1c1.4-2.5,2.1-5.2,2.1-8.1c0-9.9-8.8-18-19.5-18s-19.5,8.1-19.5,18  s8.8,18,19.5,18c4.5,0,8.7-1.3,12.1-3.9C37.1,78.5,37.4,78.4,37.6,78.4z"/><path fill="#fff" d="M69.2,28.9c-0.3,0-0.5-0.1-0.8-0.3c-0.4-0.4-0.4-0.9-0.2-1.3l5-8.6c-0.7-1.5-1.1-3.2-1.1-4.9c0-6.6,5.8-12,12.9-12  c7.1,0,12.9,5.4,12.9,12s-5.8,12-12.9,12c-2.7,0-5.2-0.7-7.3-2.1l-7.9,5.1C69.6,28.8,69.4,28.9,69.2,28.9z M85,3.9  c-5.9,0-10.7,4.4-10.7,9.8c0,1.5,0.4,3,1.1,4.4c0.2,0.3,0.2,0.7,0,1.1l-3,5.2l4.6-3c0.4-0.3,0.9-0.2,1.2,0c1.9,1.4,4.2,2.1,6.7,2.1  c5.9,0,10.7-4.4,10.7-9.8S90.9,3.9,85,3.9z"/></svg>
